:SAMPLES-PER-SECOND 30
:FULLY-SPECIFIED
:DEGREES
53
root  34.80494942 36.54778548 -14.38195837 9.288515091 -5.484288216 3.408325434
lowerback  -8.036939621 -1.046910048 -0.7686415911
upperback  -3.890215635 -0.8916069865 -3.261950016
thorax  0.4417090118 -0.2901270092 -3.007270098
lowerneck  -6.374120235 -13.81750011 -11.09990025
upperneck  10.99660015 -18.76799774 10.83530045
head  6.457439899 -8.88090992 3.459599972
lclavicle  0 -4.497500157e-015 -2.743230041e-014
lhumerus  -48.71310043 29.66530037 63.63779831
lradius  0.006620147731 -6.507048965e-006 30.32229996
lwrist  4.824992743e-007 -3.790274832e-007 -28.03409958
lhand  -3.517268817e-031 -36.80120087 -10.67949963
lfingers  90 7.125020027 -90
lthumb  94.77070618 -25.51869392 100.963768
rclavicle  0 -4.497500157e-015 -2.743230041e-014
rhumerus  -56.82759857 -25.9484005 -56.41690063
rradius  -5.16745672e-007 2.214343908e-008 94.3553009
rwrist  -2.867388866e-005 0.1017204151 -175.5209961
rhand  -2.99659963e-031 -0.973976016 -8.001350403
rfingers  -90 -7.125020027 -90
rthumb  -86.40371704 -7.780956745 -65.09815216
rfemur  -11.52311516 15.3254509 12.61264133
rtibia  -0.293297261 -1.359773278 18.94452286
rfoot  1.245368719 -22.51868439 -34.55814362
rtoes  4.123615742 19.60296822 -102.1368027
lfemur  -5.868346691 -15.82207775 -21.49726105
ltibia  4.678533554 -0.5154392719 11.2367115
lfoot  0.6791427135 -22.71436882 36.7158699
ltoes  -8.663450241 -18.09587479 -116.1302567
54
root  34.80087941 36.54775244 -14.37551543 9.308673859 -5.530112267 3.403342247
lowerback  -8.005021095 -1.044810176 -0.7654549479
upperback  -3.89276433 -0.8888009787 -3.288789988
thorax  0.4224669933 -0.2887240052 -3.036190033
lowerneck  -6.385499954 -13.84109974 -11.04030037
upperneck  11.00090027 -18.80169868 10.8039999
head  6.455520153 -8.896050453 3.436870098
lclavicle  0 -4.497500157e-015 -2.743230041e-014
lhumerus  -48.6916008 29.62800026 63.6114006
lradius  0.006620147731 -6.507048965e-006 30.2859993
lwrist  4.824992743e-007 -3.790274832e-007 -28.08519936
lhand  -3.519678794e-031 -36.79790115 -10.65089989
lfingers  90 7.125020027 -90
lthumb  94.76314545 -25.49078369 100.9576492
rclavicle  0 -4.497500157e-015 -2.743230041e-014
rhumerus  -56.56620026 -25.89629936 -56.10319901
rradius  -5.16745672e-007 2.214343908e-008 96.39309692
rwrist  -2.867388866e-005 0.1017204151 -175.4819946
rhand  -2.996638483e-031 -1.12548995 -8.000379562
rfingers  -90 -7.125020027 -90
rthumb  -86.43148804 -7.772974491 -65.24559021
rfemur  -11.4938755 15.2570858 12.60050678
rtibia  -0.263539046 -1.41478157 18.86122513
rfoot  1.292175174 -22.61038208 -34.46380234
rtoes  4.099619865 19.6024971 -102.0652313
lfemur  -5.910060883 -15.81167603 -21.47813988
ltibia  4.665389061 -0.5191400051 11.29384422
lfoot  0.7013027072 -22.73538971 36.72219086
ltoes  -8.63785553 -18.10778809 -116.0478745
55
root  34.79771952 36.54783654 -14.37004119 9.308901787 -5.585615635 3.417739391
lowerback  -7.987490177 -1.055840015 -0.7428958416
upperback  -3.896189928 -0.9068689942 -3.281500101
thorax  0.408870995 -0.2985340059 -3.042520046
lowerneck  -6.400410175 -13.85550022 -11.0632
upperneck  10.98550034 -18.81780052 10.80189991
head  6.456860065 -8.905249596 3.43637991
lclavicle  0 -4.497500157e-015 -2.743230041e-014
lhumerus  -48.73860168 29.74970055 63.5401001
lradius  0.006620147731 -6.507048965e-006 30.28389931
lwrist  4.824992743e-007 -3.790274832e-007 -28.23060036
lhand  -3.521298449e-031 -36.77629852 -10.63440037
lfingers  90 7.125020027 -90
lthumb  94.74954987 -25.47533226 100.9330368
rclavicle  0 -4.497500157e-015 -2.743230041e-014
rhumerus  -56.13740158 -25.7894001 -55.80289841
rradius  -5.16745672e-007 2.214343908e-008 98.32659912
rwrist  -2.867388866e-005 0.1017204151 -175.6670074
rhand  -3.001110987e-031 -0.628271997 -7.93460989
rfingers  -90 -7.125020027 -90
rthumb  -86.31026459 -7.861626148 -64.75788116
rfemur  -11.4791708 15.22911358 12.57915497
rtibia  -0.2552272379 -1.446958184 18.83783913
rfoot  1.312704921 -22.66238213 -34.39738464
rtoes  4.076646805 19.60139847 -101.996727
lfemur  -5.88815546 -15.77963734 -21.51011467
ltibia  4.692252636 -0.5248913169 11.26547813
lfoot  0.7104675174 -22.7230835 36.7252388
ltoes  -8.644385338 -18.10475349 -116.0688934
56
root  34.79549678 36.54804981 -14.3668002 9.35731411 -5.583690643 3.443003893
lowerback  -7.947279453 -1.066769958 -0.7382542491
upperback  -3.901469946 -0.9203600287 -3.321389914
thorax  0.3797290027 -0.3049139977 -3.086980104
lowerneck  -6.327420235 -13.89249992 -10.95059967
upperneck  10.95590019 -18.88109779 10.79419994
head  6.430540085 -8.933830261 3.416719913
lclavicle  0 -4.497500157e-015 -2.743230041e-014
lhumerus  -48.72359848 29.67910004 63.44990158
lradius  0.006620147731 -6.507048965e-006 30.27500153
lwrist  4.824992743e-007 -3.790274832e-007 -28.23500061
lhand  -3.521497843e-031 -36.79550171 -10.62930012
lfingers  90 7.125020027 -90
lthumb  94.75746918 -25.46967125 100.9531174
rclavicle  0 -4.497500157e-015 -2.743230041e-014
rhumerus  -55.78770065 -25.69980049 -55.5121994
rradius  -5.16745672e-007 2.214343908e-008 100.3079987
rwrist  -2.867388866e-005 0.1017204151 -175.6970062
rhand  -2.993894394e-031 0.09148520231 -8.04294014
rfingers  -90 -7.125020027 -90
rthumb  -86.22021484 -7.807151794 -64.06398773
rfemur  -11.57701015 15.21716595 12.55997372
rtibia  -0.2872497439 -1.436903358 18.930439
rfoot  1.288017154 -22.63556671 -34.36138916
rtoes  4.073876858 19.60027885 -101.988472
lfemur  -5.817693233 -15.73624039 -21.5818634
ltibia  4.800817966 -0.5058270693 11.06813812
lfoot  0.7088041902 -22.6687355 36.7232933
ltoes  -8.63785553 -18.10873222 -116.0478745
57
root  34.79571005 36.54837721 -14.36473816 9.372219086 -5.620394707 3.445042133
lowerback  -7.93862009 -1.067170024 -0.7732112408
upperback  -3.909339905 -0.9150339961 -3.359380007
thorax  0.3670139909 -0.3007600009 -3.10612011
lowerneck  -6.307189941 -13.92490005 -10.85420036
upperneck  10.93099976 -18.93180084 10.77260017
head  6.413229942 -8.956430435 3.392910004
lclavicle  0 -4.497500157e-015 -2.743230041e-014
lhumerus  -48.66949844 29.62129974 63.39120102
lradius  0.006620147731 -6.507048965e-006 30.2539978
lwrist  4.824992743e-007 -3.790274832e-007 -28.0991993
lhand  -3.508883719e-031 -36.79800034 -10.78110027
lfingers  90 7.125020027 -90
lthumb  94.79064941 -25.61859512 100.9696274
rclavicle  0 -4.497500157e-015 -2.743230041e-014
rhumerus  -55.4280014 -25.72249985 -55.15459824
rradius  -5.16745672e-007 2.214343908e-008 102.2799988
rwrist  -2.867388866e-005 0.1017204151 -175.8049927
rhand  -2.993287135e-031 0.2505649924 -8.051950455
rfingers  -90 -7.125020027 -90
rthumb  -86.19358063 -7.808848858 -63.90981293
rfemur  -11.60688686 15.19306469 12.54953861
rtibia  -0.2936887443 -1.452672839 18.94403648
rfoot  1.291894794 -22.6622448 -34.30153656
rtoes  4.09564352 19.59925652 -102.0533752
lfemur  -5.78024435 -15.70179939 -21.61276627
ltibia  4.841259956 -0.5012050271 10.99671936
lfoot  0.7132063508 -22.64783859 36.74135971
ltoes  -8.630516052 -18.11119652 -116.0242691
